<?xml version="1.0" encoding="iso-8859-1"?>
<!-- Generator: Adobe Illustrator 19.0.0, SVG Export Plug-In . SVG Version: 6.00 Build 0)  -->
<svg version="1.1" id="Capa_1" xmlns="http://www.w3.org/2000/svg" xmlns:xlink="http://www.w3.org/1999/xlink" x="0px" y="0px"
	 viewBox="0 0 427.579 427.579" style="enable-background:new 0 0 427.579 427.579;" xml:space="preserve">
<g>
	<g>
		<g>
			<path style="fill:#FFBF67;" d="M391.945,268.517c33.904,33.904,33.904,88.872,0,122.776s-88.872,33.904-122.776,0h0.522
				L390.9,269.562L391.945,268.517z"/>
			<path style="fill:#FFBF67;" d="M391.945,268.517l-1.045,1.045L269.692,390.77h-0.522c-32.166-35.49-29.47-90.336,6.02-122.502
				C308.345,238.219,358.918,238.327,391.945,268.517z"/>
		</g>
		<path style="fill:#F23B9F;" d="M325.072,36.027c16.567,16.21,25.812,38.472,25.6,61.649c0.212,23.177-9.033,45.439-25.6,61.649
			l-82.547,83.069l-123.298-123.82l82.547-82.547C235.836,2.015,291.009,2.015,325.072,36.027z"/>
		<path style="fill:#4ED9DA;" d="M119.227,118.574l123.298,123.82l-82.547,83.069c-34.536,33.852-89.807,33.852-124.343,0
			c-34.012-34.062-34.012-89.236,0-123.298L119.227,118.574z"/>
	</g>
	<g>
		<path style="fill:#083863;" d="M361.121,97.676c0.232-25.945-10.148-50.859-28.735-68.963
			C294.575-9.375,233.047-9.599,194.96,28.212c-0.167,0.166-0.334,0.333-0.501,0.501l-81.502,81.502l-1.567,1.045
			c0,0.577-0.468,1.045-1.045,1.045h0l-82.024,82.024c-18.176,18.55-28.312,43.515-28.212,69.486
			c-0.191,25.834,9.969,50.67,28.212,68.963c38.339,38.376,100.529,38.406,138.905,0.067c0.022-0.022,0.045-0.045,0.067-0.067
			l82.024-82.547c0.289,0,0.522-0.234,0.522-0.522h1.045l81.502-83.069C350.972,148.535,361.353,123.621,361.121,97.676z
			 M152.663,318.15c-30.295,29.807-78.897,29.807-109.192,0c-14.448-14.382-22.539-33.949-22.465-54.335
			c-0.253-20.421,7.865-40.055,22.465-54.335l75.755-75.755l108.669,108.669L152.663,318.15z M242.525,227.243L133.855,118.574
			l75.233-75.233c14.415-14.399,33.96-22.481,54.335-22.465c42.415-0.032,76.826,34.327,76.858,76.742
			c0.015,20.403-8.088,39.973-22.523,54.393L242.525,227.243z"/>
		<path style="fill:#083863;" d="M199.161,125.366c-2.756-0.039-5.385-1.166-7.314-3.135c-4.047-4.24-4.047-10.911,0-15.151
			l34.482-33.959c4.204-3.841,10.709-3.609,14.629,0.522c4.04,3.706,4.31,9.986,0.603,14.025c-0.192,0.21-0.394,0.411-0.603,0.603
			l-34.482,33.959C204.547,124.2,201.918,125.327,199.161,125.366z"/>
		<path style="fill:#083863;" d="M399.259,261.203c-37.93-38.376-99.788-38.737-138.163-0.807s-38.737,99.788-0.807,138.163
			s99.788,38.737,138.163,0.807c18.499-18.284,28.944-43.19,29.019-69.2C427.604,304.343,417.453,279.529,399.259,261.203z
			 M276.484,275.831c26.829-27.021,69.545-29.928,99.788-6.792l-106.58,107.102C246.482,345.732,249.386,302.834,276.484,275.831z
			 M384.108,383.978c-14.119,14.52-33.56,22.636-53.812,22.465c-16.624-0.075-32.768-5.579-45.976-15.673l107.102-107.102
			c9.948,13.452,15.264,29.768,15.151,46.498C406.624,350.394,398.527,369.79,384.108,383.978z"/>
	</g>
</g>
<g>
</g>
<g>
</g>
<g>
</g>
<g>
</g>
<g>
</g>
<g>
</g>
<g>
</g>
<g>
</g>
<g>
</g>
<g>
</g>
<g>
</g>
<g>
</g>
<g>
</g>
<g>
</g>
<g>
</g>
</svg>
